<svg id="visual" viewBox="0 0 1400 550" width="1400" height="550" xmlns="http://www.w3.org/2000/svg" xmlns:xlink="http://www.w3.org/1999/xlink" version="1.1"><rect x="0" y="0" width="1400" height="550" fill="#001220"></rect><path d="M0 380L33.3 380.8C66.7 381.7 133.3 383.3 200 375.5C266.7 367.7 333.3 350.3 400 352C466.7 353.7 533.3 374.3 600 374.7C666.7 375 733.3 355 800 349C866.7 343 933.3 351 1000 348.8C1066.7 346.7 1133.3 334.3 1200 337.2C1266.7 340 1333.3 358 1366.7 367L1400 376L1400 551L1366.7 551C1333.3 551 1266.7 551 1200 551C1133.3 551 1066.7 551 1000 551C933.3 551 866.7 551 800 551C733.3 551 666.7 551 600 551C533.3 551 466.7 551 400 551C333.3 551 266.7 551 200 551C133.3 551 66.7 551 33.3 551L0 551Z" fill="#dada35"></path><path d="M0 368L33.3 376.7C66.7 385.3 133.3 402.7 200 405.3C266.7 408 333.3 396 400 391.3C466.7 386.7 533.3 389.3 600 394C666.7 398.7 733.3 405.3 800 409.5C866.7 413.7 933.3 415.3 1000 413.8C1066.7 412.3 1133.3 407.7 1200 402.2C1266.7 396.7 1333.3 390.3 1366.7 387.2L1400 384L1400 551L1366.7 551C1333.3 551 1266.7 551 1200 551C1133.3 551 1066.7 551 1000 551C933.3 551 866.7 551 800 551C733.3 551 666.7 551 600 551C533.3 551 466.7 551 400 551C333.3 551 266.7 551 200 551C133.3 551 66.7 551 33.3 551L0 551Z" fill="#d9b415"></path><path d="M0 424L33.3 422.8C66.7 421.7 133.3 419.3 200 422C266.7 424.7 333.3 432.3 400 437.3C466.7 442.3 533.3 444.7 600 444.5C666.7 444.3 733.3 441.7 800 438.7C866.7 435.7 933.3 432.3 1000 435.2C1066.7 438 1133.3 447 1200 442.3C1266.7 437.7 1333.3 419.3 1366.7 410.2L1400 401L1400 551L1366.7 551C1333.3 551 1266.7 551 1200 551C1133.3 551 1066.7 551 1000 551C933.3 551 866.7 551 800 551C733.3 551 666.7 551 600 551C533.3 551 466.7 551 400 551C333.3 551 266.7 551 200 551C133.3 551 66.7 551 33.3 551L0 551Z" fill="#d28f00"></path><path d="M0 449L33.3 450.3C66.7 451.7 133.3 454.3 200 458.8C266.7 463.3 333.3 469.7 400 467.5C466.7 465.3 533.3 454.7 600 452.8C666.7 451 733.3 458 800 461C866.7 464 933.3 463 1000 463C1066.7 463 1133.3 464 1200 469C1266.7 474 1333.3 483 1366.7 487.5L1400 492L1400 551L1366.7 551C1333.3 551 1266.7 551 1200 551C1133.3 551 1066.7 551 1000 551C933.3 551 866.7 551 800 551C733.3 551 666.7 551 600 551C533.3 551 466.7 551 400 551C333.3 551 266.7 551 200 551C133.3 551 66.7 551 33.3 551L0 551Z" fill="#c66a02"></path><path d="M0 509L33.3 507.3C66.7 505.7 133.3 502.3 200 498.2C266.7 494 333.3 489 400 487.3C466.7 485.7 533.3 487.3 600 492.8C666.7 498.3 733.3 507.7 800 511.5C866.7 515.3 933.3 513.7 1000 509.5C1066.7 505.3 1133.3 498.7 1200 495.2C1266.7 491.7 1333.3 491.3 1366.7 491.2L1400 491L1400 551L1366.7 551C1333.3 551 1266.7 551 1200 551C1133.3 551 1066.7 551 1000 551C933.3 551 866.7 551 800 551C733.3 551 666.7 551 600 551C533.3 551 466.7 551 400 551C333.3 551 266.7 551 200 551C133.3 551 66.7 551 33.3 551L0 551Z" fill="#b5450d"></path></svg>