<svg id="visual" viewBox="0 0 900 600" width="900" height="600" xmlns="http://www.w3.org/2000/svg" xmlns:xlink="http://www.w3.org/1999/xlink" version="1.1"><rect x="0" y="0" width="900" height="600" fill="#001220"></rect><path d="M0 356L21.5 357.3C43 358.7 86 361.3 128.8 363.3C171.7 365.3 214.3 366.7 257.2 367.3C300 368 343 368 385.8 369.3C428.7 370.7 471.3 373.3 514.2 384.3C557 395.3 600 414.7 642.8 416C685.7 417.3 728.3 400.7 771.2 389.2C814 377.7 857 371.3 878.5 368.2L900 365L900 601L878.5 601C857 601 814 601 771.2 601C728.3 601 685.7 601 642.8 601C600 601 557 601 514.2 601C471.3 601 428.7 601 385.8 601C343 601 300 601 257.2 601C214.3 601 171.7 601 128.8 601C86 601 43 601 21.5 601L0 601Z" fill="#dada35"></path><path d="M0 410L21.5 412C43 414 86 418 128.8 417.7C171.7 417.3 214.3 412.7 257.2 418.7C300 424.7 343 441.3 385.8 438.8C428.7 436.3 471.3 414.7 514.2 409.8C557 405 600 417 642.8 424.7C685.7 432.3 728.3 435.7 771.2 429.8C814 424 857 409 878.5 401.5L900 394L900 601L878.5 601C857 601 814 601 771.2 601C728.3 601 685.7 601 642.8 601C600 601 557 601 514.2 601C471.3 601 428.7 601 385.8 601C343 601 300 601 257.2 601C214.3 601 171.7 601 128.8 601C86 601 43 601 21.5 601L0 601Z" fill="#d9b415"></path><path d="M0 469L21.5 474C43 479 86 489 128.8 488.3C171.7 487.7 214.3 476.3 257.2 466.7C300 457 343 449 385.8 448.8C428.7 448.7 471.3 456.3 514.2 458.7C557 461 600 458 642.8 458.7C685.7 459.3 728.3 463.7 771.2 464.8C814 466 857 464 878.5 463L900 462L900 601L878.5 601C857 601 814 601 771.2 601C728.3 601 685.7 601 642.8 601C600 601 557 601 514.2 601C471.3 601 428.7 601 385.8 601C343 601 300 601 257.2 601C214.3 601 171.7 601 128.8 601C86 601 43 601 21.5 601L0 601Z" fill="#d28f00"></path><path d="M0 484L21.5 489.8C43 495.7 86 507.3 128.8 515.2C171.7 523 214.3 527 257.2 529.8C300 532.7 343 534.3 385.8 531.2C428.7 528 471.3 520 514.2 519.5C557 519 600 526 642.8 525.7C685.7 525.3 728.3 517.7 771.2 515.5C814 513.3 857 516.7 878.5 518.3L900 520L900 601L878.5 601C857 601 814 601 771.2 601C728.3 601 685.7 601 642.8 601C600 601 557 601 514.2 601C471.3 601 428.7 601 385.8 601C343 601 300 601 257.2 601C214.3 601 171.7 601 128.8 601C86 601 43 601 21.5 601L0 601Z" fill="#c66a02"></path><path d="M0 554L21.5 554.7C43 555.3 86 556.7 128.8 555.5C171.7 554.3 214.3 550.7 257.2 548.2C300 545.7 343 544.3 385.8 541.8C428.7 539.3 471.3 535.7 514.2 538.8C557 542 600 552 642.8 551.8C685.7 551.7 728.3 541.3 771.2 541.8C814 542.3 857 553.7 878.5 559.3L900 565L900 601L878.5 601C857 601 814 601 771.2 601C728.3 601 685.7 601 642.8 601C600 601 557 601 514.2 601C471.3 601 428.7 601 385.8 601C343 601 300 601 257.2 601C214.3 601 171.7 601 128.8 601C86 601 43 601 21.5 601L0 601Z" fill="#b5450d"></path></svg>